<svg width="127.971" height="127.971" xmlns="http://www.w3.org/2000/svg">

 <g>
  <title>background</title>
  <rect fill="none" id="canvas_background" height="402" width="582" y="-1" x="-1"/>
 </g>
 <g>
  <title>Layer 1</title>
  <g id="svg_1">
   <g id="svg_2">
    <path id="svg_3" fill="#F9F9E4" d="m98.636,91.818c0,19.139 -15.514,34.652 -34.65,34.652s-34.65,-15.514 -34.65,-34.652c0,-19.137 15.514,-54.314 34.65,-54.314s34.65,35.178 34.65,54.314z"/>
   </g>
   <g id="svg_4">
    <path id="svg_5" fill="#E5E4C3" d="m63.985,37.504l0,88.967c19.137,0 34.65,-15.514 34.65,-34.652c0.001,-19.137 -15.513,-54.315 -34.65,-54.315z"/>
   </g>
   <g id="svg_6">
    <g id="svg_7">
     <path id="svg_8" fill="#78bf83" d="m42.514,111.479c3.197,3.494 6.719,5.203 4.847,6.918c-1.873,1.713 -5.984,0.268 -9.18,-3.227c-3.197,-3.496 -4.271,-7.719 -2.398,-9.432c1.872,-1.711 3.533,2.242 6.731,5.741z"/>
    </g>
    <g id="svg_9">
     <path id="svg_10" fill="#78bf83" d="m85.456,111.479c-3.197,3.494 -6.719,5.203 -4.848,6.918c1.874,1.713 5.984,0.268 9.181,-3.227c3.197,-3.496 4.271,-7.719 2.398,-9.432c-1.873,-1.711 -3.534,2.242 -6.731,5.741z"/>
    </g>
   </g>
   <g id="svg_11">
    <path id="svg_12" fill="#78bf83" d="m84.337,100.789c-4.509,9.766 -13.717,15.121 -20.566,11.959c-6.85,-3.162 -3.667,-8.914 0.842,-18.68c4.508,-9.766 8.634,-19.848 15.484,-16.686c6.849,3.163 8.748,13.643 4.24,23.407z"/>
   </g>
   <g id="svg_13">
    <path id="svg_14" fill="#78bf83" d="m80.097,77.383c-6.851,-3.162 -10.976,6.92 -15.484,16.686c-0.213,0.461 -0.422,0.91 -0.627,1.352l0,17.416c6.828,2.957 15.891,-2.379 20.352,-12.047c4.507,-9.765 2.608,-20.245 -4.241,-23.407z"/>
   </g>
   <g id="svg_15">
    <circle id="svg_16" fill="#78bf83" r="2.201" cy="64.156" cx="44.06"/>
   </g>
   <g id="svg_17">
    <path id="svg_18" fill="#78bf83" d="m52.865,53.625c0,0.477 -0.386,0.863 -0.862,0.863c-0.475,0 -0.86,-0.387 -0.86,-0.863c0,-0.471 0.386,-0.859 0.86,-0.859c0.476,0 0.862,0.388 0.862,0.859z"/>
   </g>
   <g id="svg_19">
    <circle id="svg_20" fill="#78bf83" r="1.244" cy="76.791" cx="47.505"/>
   </g>
   <g id="svg_21">
    <circle id="svg_22" fill="#78bf83" r="1.245" cy="117.873" cx="66.904"/>
   </g>
   <g id="svg_23">
    <circle id="svg_24" fill="#78bf83" r="1.244" cy="116.629" cx="61.048"/>
   </g>
   <g id="svg_25">
    <circle id="svg_26" fill="#78bf83" r="2.545" cy="57.992" cx="78.765"/>
   </g>
   <g id="svg_27">
    <circle id="svg_28" fill="#78bf83" r="2.489" cy="68.846" cx="85.984"/>
   </g>
   <g id="svg_29">
    <circle id="svg_30" fill="#78bf83" r="2.488" cy="102.213" cx="50.558"/>
   </g>
   <g id="svg_31">
    <path id="svg_32" fill="#33363A" d="m50.685,0l-10.452,0c-0.829,0 -1.5,0.672 -1.5,1.5l0,15.238c0,0.828 0.671,1.5 1.5,1.5l10.451,0c0.829,0 1.5,-0.672 1.5,-1.5l0,-15.238c0.001,-0.828 -0.671,-1.5 -1.499,-1.5zm-1.5,15.238l-7.451,0l0,-12.238l7.451,0l0,12.238z"/>
    <path id="svg_33" fill="#33363A" d="m69.524,0c-0.829,0 -1.5,0.672 -1.5,1.5l0,6.119l-7.451,0l0,-6.119c0,-0.828 -0.671,-1.5 -1.5,-1.5s-1.5,0.672 -1.5,1.5l0,15.238c0,0.828 0.671,1.5 1.5,1.5s1.5,-0.672 1.5,-1.5l0,-6.119l7.451,0l0,6.119c0,0.828 0.671,1.5 1.5,1.5s1.5,-0.672 1.5,-1.5l0,-15.238c0,-0.828 -0.671,-1.5 -1.5,-1.5z"/>
    <path id="svg_34" fill="#33363A" d="m87.737,0l-10.451,0c-0.829,0 -1.5,0.672 -1.5,1.5l0,3.191c0,0.828 0.671,1.5 1.5,1.5s1.5,-0.672 1.5,-1.5l0,-1.691l7.451,0l0,4.619l-3.727,0c-0.829,0 -1.5,0.672 -1.5,1.5c0,0.023 0.006,0.045 0.007,0.067c-0.001,0.023 -0.007,0.044 -0.007,0.067l0,3.256c0,0.828 0.671,1.5 1.5,1.5s1.5,-0.672 1.5,-1.5l0,-1.891l3.727,0c0.829,0 1.5,-0.672 1.5,-1.5l0,-7.618c0,-0.828 -0.671,-1.5 -1.5,-1.5z"/>
    <path id="svg_35" fill="#33363A" d="m81.445,15.675c-0.27,0.28 -0.43,0.67 -0.43,1.061c0,0.399 0.16,0.78 0.44,1.06c0.27,0.28 0.66,0.44 1.06,0.44c0.39,0 0.78,-0.16 1.06,-0.44c0.28,-0.279 0.44,-0.66 0.44,-1.06c0,-0.391 -0.16,-0.78 -0.45,-1.061c-0.55,-0.56 -1.56,-0.55 -2.12,0z"/>
   </g>
   <path id="svg_36" fill="#33363A" d="m89.795,56.751c-7.5,-13.379 -16.666,-20.747 -25.81,-20.747s-18.311,7.368 -25.81,20.747c-6.281,11.207 -10.34,24.972 -10.34,35.067c0,19.935 16.217,36.152 36.15,36.152s36.15,-16.218 36.15,-36.152c0.001,-10.095 -4.058,-23.86 -10.34,-35.067zm-25.81,68.22c-18.279,0 -33.15,-14.872 -33.15,-33.152c0,-17.847 15.009,-52.814 33.15,-52.814c15.137,0 28.085,24.338 31.961,42.769l-3.519,-3.521c-0.281,-0.281 -0.663,-0.439 -1.061,-0.439s-0.779,0.158 -1.061,0.439l-4.962,4.962l-4.961,-4.962c-0.563,-0.563 -1.56,-0.563 -2.122,0l-4.96,4.962l-4.961,-4.962c-0.563,-0.563 -1.559,-0.563 -2.122,0l-4.96,4.962l-4.961,-4.962c-0.563,-0.563 -1.558,-0.563 -2.122,0l-6.021,6.023c-0.585,0.586 -0.585,1.536 0,2.121c0.293,0.293 0.677,0.439 1.061,0.439s0.768,-0.146 1.061,-0.439l4.96,-4.963l4.962,4.963c0.293,0.293 0.676,0.439 1.06,0.439c0,0 0,0 0,0c0.384,0 0.768,-0.146 1.061,-0.439l4.959,-4.962l4.962,4.962c0.293,0.293 0.676,0.439 1.06,0.439c0,0 0,0 0,0c0.384,0 0.768,-0.146 1.061,-0.439l4.959,-4.962l4.96,4.962c0.293,0.293 0.677,0.439 1.061,0.439s0.768,-0.146 1.06,-0.439l4.962,-4.962l4.959,4.962c0.135,0.135 0.294,0.232 0.459,0.305c0.227,1.814 0.351,3.536 0.351,5.117c0.005,18.28 -14.866,33.152 -33.146,33.152z"/>
  </g>
  <g id="svg_37"/>
  <g id="svg_38"/>
  <g id="svg_39"/>
  <g id="svg_40"/>
  <g id="svg_41"/>
  <g id="svg_42"/>
  <g id="svg_43"/>
  <g id="svg_44"/>
  <g id="svg_45"/>
  <g id="svg_46"/>
  <g id="svg_47"/>
  <g id="svg_48"/>
  <g id="svg_49"/>
  <g id="svg_50"/>
  <g id="svg_51"/>
 </g>
</svg>