<svg width="126.666" height="126.666" xmlns="http://www.w3.org/2000/svg">

 <g>
  <title>background</title>
  <rect fill="none" id="canvas_background" height="402" width="582" y="-1" x="-1"/>
 </g>
 <g>
  <title>Layer 1</title>
  <g id="svg_1">
   <g id="svg_2">
    <path id="svg_3" fill="#FFFFFA" d="m111.5,77c0,26.601 -21.564,48.166 -48.166,48.166c-26.604,0 -48.168,-21.565 -48.168,-48.166c0,-26.603 21.564,-75.5 48.168,-75.5c26.602,0 48.166,48.897 48.166,75.5z"/>
   </g>
   <g id="svg_4">
    <path id="svg_5" fill="#F9F9E4" d="m63.334,1.5l0,123.666c26.602,0 48.166,-21.565 48.166,-48.166c0,-26.603 -21.564,-75.5 -48.166,-75.5z"/>
   </g>
   <g id="svg_6">
    <g id="svg_7">
     <path id="svg_8" fill="#9555b2" d="m33.486,104.326c4.445,4.857 9.34,7.236 6.738,9.617c-2.604,2.381 -8.316,0.371 -12.762,-4.486c-4.443,-4.858 -5.936,-10.727 -3.332,-13.109c2.602,-2.379 4.913,3.117 9.356,7.978z"/>
    </g>
    <g id="svg_9">
     <path id="svg_10" fill="#9555b2" d="m93.18,104.326c-4.445,4.857 -9.34,7.236 -6.738,9.617c2.604,2.381 8.316,0.371 12.762,-4.486c4.443,-4.858 5.936,-10.727 3.332,-13.109c-2.602,-2.379 -4.913,3.117 -9.356,7.978z"/>
    </g>
   </g>
   <g id="svg_11">
    <path id="svg_12" fill="#33363A" d="m63.334,126.666c-27.387,0 -49.668,-22.28 -49.668,-49.666c0,-13.942 5.612,-32.964 14.299,-48.46c10.317,-18.404 22.878,-28.54 35.369,-28.54c12.49,0 25.051,10.136 35.367,28.54c8.687,15.496 14.299,34.518 14.299,48.46c0,27.386 -22.28,49.666 -49.666,49.666zm0,-123.666c-15.324,0 -27.098,16.921 -32.752,27.007c-8.454,15.081 -13.916,33.527 -13.916,46.993c0,25.732 20.936,46.666 46.668,46.666c25.731,0 46.666,-20.934 46.666,-46.666c0,-13.466 -5.462,-31.912 -13.916,-46.993c-5.653,-10.086 -17.427,-27.007 -32.75,-27.007z"/>
   </g>
   <g id="svg_13">
    <path id="svg_14" fill="#9555b2" d="m91.623,89.47c-6.268,13.575 -19.066,21.016 -28.588,16.62c-9.521,-4.396 -5.098,-12.389 1.17,-25.965c6.266,-13.573 12.002,-27.589 21.523,-23.191c9.522,4.394 12.161,18.963 5.895,32.536z"/>
   </g>
   <g id="svg_15">
    <path id="svg_16" fill="#9555b2" d="m85.729,56.934c-9.521,-4.397 -15.258,9.618 -21.523,23.191c-0.297,0.641 -0.586,1.265 -0.871,1.88l0,24.209c9.488,4.109 22.088,-3.309 28.289,-16.744c6.265,-13.573 3.626,-28.142 -5.895,-32.536z"/>
   </g>
   <g id="svg_17">
    <circle id="svg_18" fill="#9555b2" r="3.06" cy="38.547" cx="35.636"/>
   </g>
   <g id="svg_19">
    <circle id="svg_20" fill="#9555b2" r="1.197" cy="23.91" cx="46.678"/>
   </g>
   <g id="svg_21">
    <circle id="svg_22" fill="#9555b2" r="1.73" cy="56.11" cx="40.426"/>
   </g>
   <g id="svg_23">
    <circle id="svg_24" fill="#9555b2" r="1.73" cy="113.216" cx="67.392"/>
   </g>
   <g id="svg_25">
    <circle id="svg_26" fill="#9555b2" r="1.73" cy="111.486" cx="59.251"/>
   </g>
   <g id="svg_27">
    <circle id="svg_28" fill="#9555b2" r="3.537" cy="29.977" cx="83.879"/>
   </g>
   <g fill="#9555b2" id="svg_29">
    <circle id="svg_30" fill="#9555b2" r="3.46" cy="45.066" cx="93.706389"/>
   </g>
   <g id="svg_31">
    <circle id="svg_32" fill="#8f38b5" r="3.459" cy="91.447" cx="44.668"/>
   </g>
   <g id="svg_33">
    <path id="svg_34" fill="#9555b2" d="m67.059,40.692c0,8.108 3.498,14.682 -4.611,14.682c-8.109,0 -14.682,-6.573 -14.682,-14.682s6.572,-14.685 14.682,-14.685c8.109,0.001 4.611,6.577 4.611,14.685z"/>
   </g>
   <g id="svg_35">
    <path id="svg_36" fill="#9555b2" d="m63.334,55.341c6.951,-0.482 3.725,-6.854 3.725,-14.648c0,-7.794 3.227,-14.169 -3.725,-14.651l0,29.299z"/>
   </g>
  </g>
  <g id="svg_37"/>
  <g id="svg_38"/>
  <g id="svg_39"/>
  <g id="svg_40"/>
  <g id="svg_41"/>
  <g id="svg_42"/>
  <g id="svg_43"/>
  <g id="svg_44"/>
  <g id="svg_45"/>
  <g id="svg_46"/>
  <g id="svg_47"/>
  <g id="svg_48"/>
  <g id="svg_49"/>
  <g id="svg_50"/>
  <g id="svg_51"/>
 </g>
</svg>