<svg xmlns="http://www.w3.org/2000/svg" xmlns:xlink="http://www.w3.org/1999/xlink" version="1.1" style="" xml:space="preserve" width="462.6666666666665" height="183.33333333333343"><rect id="backgroundrect" width="100%" height="100%" x="0" y="0" fill="none" stroke="none" style="" class=""/>
<style type="text/css">
	.st0{fill:#FFFFFF;stroke:#010202;stroke-width:3;stroke-miterlimit:10;}
	.st1{fill:#616461;stroke:#2A2828;stroke-width:3;stroke-miterlimit:10;}
	.st2{fill:#999596;}
	.st3{fill:#4DAF50;}
	.st4{fill:#010202;}
	.st5{fill:#2B2828;}
	.st6{fill:#474444;}
	.st7{fill:#FFFFFF;stroke:#2B2828;stroke-width:6;stroke-miterlimit:10;}
	.st8{fill:none;stroke:#2B2828;stroke-width:7.5;stroke-miterlimit:10;}
	.st9{fill:none;stroke:#2B2828;stroke-width:1.5;stroke-miterlimit:10;}
</style>



<g class="currentLayer" style=""><title>Layer 1</title><g id="Ebene_3" class="">
	<circle class="st0" cx="229.6666692495346" cy="92.13332122564316" r="83.30000305175781" id="svg_1"/>
	<path class="st1" d="M287.9666692495346,6.033333432674397 c0,0 104.6,5.3 169.9,78.4 c0,0 -72.7,94.3 -167.2,92.4 C290.6666692495346,176.73333343267439 390.4666692495346,99.43333343267443 287.9666692495346,6.033333432674397 z" id="svg_2"/>
	<path class="st1" d="M172.2666692495346,6.033333432674397 c0,0 -104.6,5.3 -169.9,78.4 c0,0 75,94.5 169.5,92.6 C171.96666924953462,177.0333334326744 67.96666924953462,98.93333343267443 172.2666692495346,6.033333432674397 z" id="svg_3"/>
	<path class="st2" d="M125.2666692495346,95.5333334326744 l-119.4,-9.3 c0,0 70.3,90.5 163.4,90.1 C169.1666692495346,176.43333343267443 127.1666692495346,141.93333343267443 125.2666692495346,95.5333334326744 z" id="svg_4"/>
	<path class="st2" d="M335.26666924953463,95.5333334326744 l120.6,-11.1 c0,0 -72.8,96.4 -163.1,90.8 C292.6666692495346,175.23333343267439 333.9666692495346,143.5333334326744 335.26666924953463,95.5333334326744 z" id="svg_5"/>
	<path class="st3" d="M312.9666692495346,91.63333343267442 h-166 c0,0 -3.8,-75.2 82.7,-82.8 C229.76666924953463,8.93333343267443 309.1666692495346,9.93333343267443 312.9666692495346,91.63333343267442 z" id="svg_6"/>
	<g id="svg_7">
		<line class="st4" x1="125.6666692495346" y1="85.53334563970566" x2="70.96667230129242" y2="81.93333953619003" id="svg_8"/>
		<polygon class="st5" points="125.5666554570198,86.9333267211914 70.96666461229324,81.9333267211914 125.76666766405106,84.13330841064453 " id="svg_9"/>
	</g>
	<g id="svg_10">
		<line class="st4" x1="126.46667230129242" y1="94.53334563970566" x2="3.9666723012924194" y2="86.13332122564316" id="svg_11"/>
		<polygon class="st5" points="126.16666156053543,98.33332061767578 3.9666722416877747,86.13330841064453 126.66666156053543,90.83332061767578 " id="svg_12"/>
	</g>
	<g id="svg_13">
		<line class="st4" x1="333.76667535305023" y1="94.43333953619003" x2="455.36668145656586" y2="84.83333343267441" id="svg_14"/>
		<polygon class="st5" points="333.4666340947151,90.73331451416016 455.3666585087776,84.83332061767578 334.06664019823074,98.23331451416016 " id="svg_15"/>
	</g>
	<g id="svg_16">
		<line class="st4" x1="334.36668145656586" y1="85.93333953619003" x2="389.46665704250336" y2="82.43333953619003" id="svg_17"/>
		<polygon class="st5" points="334.266652405262,84.4333267211914 389.4666340947151,82.4333267211914 334.4666340947151,87.33332061767578 " id="svg_18"/>
	</g>
	<path class="st6" d="M234.46666924953462,76.43333343267443 c0,0 52.5,-45 64,-38 c0,0 10.5,9.5 9,14.5 s-61.5,34.5 -61.5,34.5 " id="svg_19"/>
	<path class="st6" d="M214.3666692495346,85.5333334326744 c0,0 -60,-29.5 -61.5,-34.5 s9,-14.5 9,-14.5 c11.5,-7 64,38 64,38 " id="svg_20"/>
	<path class="st6" d="M306.26666924953463,92.63333343267442 c0,0 0.9,-36.2 -18,-43.5 c-21.4,-8.3 -16.5,17.6 -16.5,17.6 s15,13.5 15.4,24.8 L306.26666924953463,92.63333343267442 z" id="svg_21"/>
	<path class="st6" d="M153.5666692495346,93.0333334326744 c0,0 -0.9,-36.2 18,-43.5 c21.4,-8.3 16.5,17.6 16.5,17.6 s-15,13.5 -15.4,24.8 L153.5666692495346,93.0333334326744 z" id="svg_22"/>
	<path class="st6" d="M274.4666692495346,56.63333343267442 c-13.1,-30 -47.6,-48.8 -41.3,-50.3 s15.4,1.5 15.4,1.5 c25.9,9.4 38.6,38.6 38.6,38.6 L274.4666692495346,56.63333343267442 z" id="svg_23"/>
	<path class="st6" d="M186.6666692495346,57.0333334326744 c13.1,-30 47.6,-48.8 41.3,-50.3 s-15.4,1.5 -15.4,1.5 c-25.9,9.4 -38.6,38.6 -38.6,38.6 L186.6666692495346,57.0333334326744 z" id="svg_24"/>
	<circle class="st7" cx="230.1666692495346" cy="92.13332122564316" r="16.299999237060547" id="svg_25"/>
	<line class="st8" x1="146.46667230129242" y1="92.13332122564316" x2="213.96665704250336" y2="92.13332122564316" id="svg_26"/>
	<line class="st8" x1="246.46665704250336" y1="92.13332122564316" x2="312.96665704250336" y2="92.13332122564316" id="svg_27"/>
	<path class="st5" d="M232.1666692495346,8.033333432674397 c0,0 36.7,29.4 38.4,41 l-4,2.6 C266.5666692495346,51.63333343267442 269.1666692495346,41.43333343267443 232.1666692495346,8.033333432674397 z" id="svg_28"/>
	<polygon class="st9" points="152.86667376756668,51.03335189819336 161.76668292284012,58.13332748413086 160.76668292284012,59.433345794677734 " id="svg_29"/>
	<polygon class="st9" points="307.66664630174637,51.933345794677734 298.66664630174637,59.03335189819336 299.66664630174637,60.433345794677734 " id="svg_30"/>
	<path class="st9" d="M173.3666692495346,88.5333334326744 c0,0 0.8,-7.1 11.3,-18.4 l29.6,16.3 " id="svg_31"/>
	<path class="st9" d="M287.9666692495346,89.23333343267439 c0,0 -0.8,-7.1 -11.3,-18.4 l-29.6,16.3 " id="svg_32"/>
	<path class="st5" d="M184.6666692495346,70.13333343267442 c0,0 -8.9,15.9 -7.9,20 l-3.9,-0.4 C172.7666692495346,89.73333343267439 173.96666924953462,81.23333343267439 184.6666692495346,70.13333343267442 z" id="svg_33"/>
	<path class="st5" d="M276.3666692495346,70.93333343267443 c0,0 9.4,15.8 8.4,20 l3.4,-0.3000000000000003 C288.1666692495346,90.5333334326744 287.0666692495346,82.0333334326744 276.3666692495346,70.93333343267443 z" id="svg_34"/>
	<path class="st5" d="M229.76666924953463,7.5333334326743975 c0,0 -36.7,29.4 -38.4,41 l4,2.6 C195.46666924953462,51.13333343267442 192.76666924953463,40.93333343267443 229.76666924953463,7.5333334326743975 z" id="svg_35"/>
</g><g id="Ebene_1">
</g><g id="Ebene_2">
</g></g></svg>